<mxfile host="app.diagrams.net" agent="Mozilla/5.0 (Windows NT 10.0; Win64; x64) AppleWebKit/537.36 (KHTML, like Gecko) Chrome/137.0.0.0 Safari/537.36" version="27.1.6">
  <diagram name="第 1 页" id="FEx4c6Z-j13t4VLZ67yQ">
    <mxGraphModel dx="1042" dy="569" grid="1" gridSize="10" guides="1" tooltips="1" connect="1" arrows="1" fold="1" page="1" pageScale="1" pageWidth="1169" pageHeight="827" math="0" shadow="0">
      <root>
        <mxCell id="0" />
        <mxCell id="1" parent="0" />
        <mxCell id="HKb9agsZ1lEbPJPf2dtr-1" value="Mindmap" style="swimlane;startSize=20;horizontal=0;childLayout=treeLayout;horizontalTree=1;sortEdges=1;resizable=0;containerType=tree;fontSize=12;fillColor=#dae8fc;strokeColor=#6c8ebf;sketch=1;curveFitting=1;jiggle=2;rounded=1;fontFamily=Comic Sans MS;" parent="1" vertex="1">
          <mxGeometry x="120" y="70" width="1080" height="950" as="geometry" />
        </mxCell>
        <mxCell id="HKb9agsZ1lEbPJPf2dtr-2" value="Attn Map" style="whiteSpace=wrap;html=1;shape=ellipse;perimeter=ellipsePerimeter;newEdgeStyle={&quot;edgeStyle&quot;:&quot;entityRelationEdgeStyle&quot;,&quot;startArrow&quot;:&quot;none&quot;,&quot;endArrow&quot;:&quot;none&quot;,&quot;segment&quot;:10,&quot;curved&quot;:1,&quot;sourcePerimeterSpacing&quot;:0,&quot;targetPerimeterSpacing&quot;:0};treeFolding=1;treeMoving=1;fillColor=#f8cecc;strokeColor=#b85450;sketch=1;curveFitting=1;jiggle=2;fontFamily=Comic Sans MS;" parent="HKb9agsZ1lEbPJPf2dtr-1" vertex="1">
          <mxGeometry x="40" y="578" width="100" height="40" as="geometry" />
        </mxCell>
        <mxCell id="HKb9agsZ1lEbPJPf2dtr-7" value="enhance attn map" style="whiteSpace=wrap;html=1;rounded=1;arcSize=50;align=center;verticalAlign=middle;strokeWidth=1;autosize=1;spacing=4;treeFolding=1;treeMoving=1;newEdgeStyle={&quot;edgeStyle&quot;:&quot;entityRelationEdgeStyle&quot;,&quot;startArrow&quot;:&quot;none&quot;,&quot;endArrow&quot;:&quot;none&quot;,&quot;segment&quot;:10,&quot;curved&quot;:1,&quot;sourcePerimeterSpacing&quot;:0,&quot;targetPerimeterSpacing&quot;:0};fillColor=#d5e8d4;strokeColor=#82b366;sketch=1;curveFitting=1;jiggle=2;fontFamily=Comic Sans MS;" parent="HKb9agsZ1lEbPJPf2dtr-1" vertex="1">
          <mxGeometry x="190" y="460" width="140" height="30" as="geometry" />
        </mxCell>
        <mxCell id="HKb9agsZ1lEbPJPf2dtr-8" value="" style="edgeStyle=entityRelationEdgeStyle;startArrow=none;endArrow=none;segment=10;curved=1;sourcePerimeterSpacing=0;targetPerimeterSpacing=0;rounded=0;fontFamily=Comic Sans MS;" parent="HKb9agsZ1lEbPJPf2dtr-1" source="HKb9agsZ1lEbPJPf2dtr-2" target="HKb9agsZ1lEbPJPf2dtr-7" edge="1">
          <mxGeometry x="60" y="-93" width="80" height="26" as="geometry" />
        </mxCell>
        <mxCell id="HKb9agsZ1lEbPJPf2dtr-11" value="" style="edgeStyle=entityRelationEdgeStyle;startArrow=none;endArrow=none;segment=10;curved=1;sourcePerimeterSpacing=0;targetPerimeterSpacing=0;rounded=0;fontFamily=Comic Sans MS;" parent="HKb9agsZ1lEbPJPf2dtr-1" source="HKb9agsZ1lEbPJPf2dtr-2" target="HKb9agsZ1lEbPJPf2dtr-12" edge="1">
          <mxGeometry x="60" y="-93" width="80" height="26" as="geometry">
            <mxPoint x="300" y="-2495.5" as="sourcePoint" />
          </mxGeometry>
        </mxCell>
        <mxCell id="HKb9agsZ1lEbPJPf2dtr-12" value="modify token" style="whiteSpace=wrap;html=1;rounded=1;arcSize=50;align=center;verticalAlign=middle;strokeWidth=1;autosize=1;spacing=4;treeFolding=1;treeMoving=1;newEdgeStyle={&quot;edgeStyle&quot;:&quot;entityRelationEdgeStyle&quot;,&quot;startArrow&quot;:&quot;none&quot;,&quot;endArrow&quot;:&quot;none&quot;,&quot;segment&quot;:10,&quot;curved&quot;:1,&quot;sourcePerimeterSpacing&quot;:0,&quot;targetPerimeterSpacing&quot;:0};fillColor=#d5e8d4;strokeColor=#82b366;sketch=1;curveFitting=1;jiggle=2;fontFamily=Comic Sans MS;" parent="HKb9agsZ1lEbPJPf2dtr-1" vertex="1">
          <mxGeometry x="190" y="706" width="120" height="30" as="geometry" />
        </mxCell>
        <mxCell id="HKb9agsZ1lEbPJPf2dtr-19" value="SAG&lt;div&gt;self attn map + threshold -&amp;gt; spatial mask + guassian -&amp;gt; cfg 中的“负样本”&lt;/div&gt;" style="whiteSpace=wrap;html=1;shape=partialRectangle;top=0;left=0;bottom=1;right=0;points=[[0,1],[1,1]];fillColor=none;align=center;verticalAlign=bottom;routingCenterY=0.5;snapToPoint=1;recursiveResize=0;autosize=1;treeFolding=1;treeMoving=1;newEdgeStyle={&quot;edgeStyle&quot;:&quot;entityRelationEdgeStyle&quot;,&quot;startArrow&quot;:&quot;none&quot;,&quot;endArrow&quot;:&quot;none&quot;,&quot;segment&quot;:10,&quot;curved&quot;:1,&quot;sourcePerimeterSpacing&quot;:0,&quot;targetPerimeterSpacing&quot;:0};fontFamily=Comic Sans MS;" parent="HKb9agsZ1lEbPJPf2dtr-1" vertex="1">
          <mxGeometry x="380" y="20" width="430" height="40" as="geometry" />
        </mxCell>
        <mxCell id="HKb9agsZ1lEbPJPf2dtr-20" value="" style="edgeStyle=entityRelationEdgeStyle;startArrow=none;endArrow=none;segment=10;curved=1;sourcePerimeterSpacing=0;targetPerimeterSpacing=0;rounded=0;fontFamily=Comic Sans MS;" parent="HKb9agsZ1lEbPJPf2dtr-1" source="HKb9agsZ1lEbPJPf2dtr-7" target="HKb9agsZ1lEbPJPf2dtr-19" edge="1">
          <mxGeometry x="250" y="-95" width="80" height="20" as="geometry" />
        </mxCell>
        <mxCell id="HKb9agsZ1lEbPJPf2dtr-21" value="" style="edgeStyle=entityRelationEdgeStyle;startArrow=none;endArrow=none;segment=10;curved=1;sourcePerimeterSpacing=0;targetPerimeterSpacing=0;rounded=0;fontFamily=Comic Sans MS;" parent="HKb9agsZ1lEbPJPf2dtr-1" source="HKb9agsZ1lEbPJPf2dtr-7" target="HKb9agsZ1lEbPJPf2dtr-22" edge="1">
          <mxGeometry x="250" y="-95" width="80" height="20" as="geometry">
            <mxPoint x="490" y="-2505" as="sourcePoint" />
          </mxGeometry>
        </mxCell>
        <mxCell id="HKb9agsZ1lEbPJPf2dtr-22" value="Attend-and-Excite&lt;div&gt;第一个提出直接在 zt 上更新&lt;br&gt;&lt;div&gt;所有 subject 中 cross attn map 的最大值最小的 subject 计算 loss -&amp;gt; 在 zt 上直接更新&lt;/div&gt;&lt;div&gt;在不同 timestep 上设置针对 loss 的 “检查点”，不通过则循环更新到满足为止&lt;/div&gt;&lt;/div&gt;" style="whiteSpace=wrap;html=1;shape=partialRectangle;top=0;left=0;bottom=1;right=0;points=[[0,1],[1,1]];fillColor=none;align=center;verticalAlign=bottom;routingCenterY=0.5;snapToPoint=1;recursiveResize=0;autosize=1;treeFolding=1;treeMoving=1;newEdgeStyle={&quot;edgeStyle&quot;:&quot;entityRelationEdgeStyle&quot;,&quot;startArrow&quot;:&quot;none&quot;,&quot;endArrow&quot;:&quot;none&quot;,&quot;segment&quot;:10,&quot;curved&quot;:1,&quot;sourcePerimeterSpacing&quot;:0,&quot;targetPerimeterSpacing&quot;:0};fontFamily=Comic Sans MS;" parent="HKb9agsZ1lEbPJPf2dtr-1" vertex="1">
          <mxGeometry x="380" y="100" width="510" height="70" as="geometry" />
        </mxCell>
        <mxCell id="HKb9agsZ1lEbPJPf2dtr-27" value="" style="edgeStyle=entityRelationEdgeStyle;startArrow=none;endArrow=none;segment=10;curved=1;sourcePerimeterSpacing=0;targetPerimeterSpacing=0;rounded=0;fontFamily=Comic Sans MS;" parent="HKb9agsZ1lEbPJPf2dtr-1" source="HKb9agsZ1lEbPJPf2dtr-7" target="HKb9agsZ1lEbPJPf2dtr-28" edge="1">
          <mxGeometry x="250" y="-95" width="80" height="20" as="geometry">
            <mxPoint x="490" y="-2430.5" as="sourcePoint" />
          </mxGeometry>
        </mxCell>
        <mxCell id="HKb9agsZ1lEbPJPf2dtr-28" value="MagicFusion&lt;div&gt;融合 general 模型和 expert 模型，e(xt, c)-e(xt) 量化关注度形成 spatial mask&lt;/div&gt;" style="whiteSpace=wrap;html=1;shape=partialRectangle;top=0;left=0;bottom=1;right=0;points=[[0,1],[1,1]];fillColor=none;align=center;verticalAlign=bottom;routingCenterY=0.5;snapToPoint=1;recursiveResize=0;autosize=1;treeFolding=1;treeMoving=1;newEdgeStyle={&quot;edgeStyle&quot;:&quot;entityRelationEdgeStyle&quot;,&quot;startArrow&quot;:&quot;none&quot;,&quot;endArrow&quot;:&quot;none&quot;,&quot;segment&quot;:10,&quot;curved&quot;:1,&quot;sourcePerimeterSpacing&quot;:0,&quot;targetPerimeterSpacing&quot;:0};fontFamily=Comic Sans MS;" parent="HKb9agsZ1lEbPJPf2dtr-1" vertex="1">
          <mxGeometry x="380" y="210" width="460" height="40" as="geometry" />
        </mxCell>
        <mxCell id="HKb9agsZ1lEbPJPf2dtr-29" value="" style="edgeStyle=entityRelationEdgeStyle;startArrow=none;endArrow=none;segment=10;curved=1;sourcePerimeterSpacing=0;targetPerimeterSpacing=0;rounded=0;fontFamily=Comic Sans MS;" parent="HKb9agsZ1lEbPJPf2dtr-1" source="HKb9agsZ1lEbPJPf2dtr-7" target="HKb9agsZ1lEbPJPf2dtr-30" edge="1">
          <mxGeometry x="250" y="-95" width="80" height="20" as="geometry">
            <mxPoint x="490" y="-2289.5" as="sourcePoint" />
          </mxGeometry>
        </mxCell>
        <mxCell id="HKb9agsZ1lEbPJPf2dtr-30" value="Syntax Guided Generation&lt;div&gt;使用 KL 散度监督 subject 和对应的 attribute token 之间的 cross attn map 接近，反之则应该远离&lt;/div&gt;" style="whiteSpace=wrap;html=1;shape=partialRectangle;top=0;left=0;bottom=1;right=0;points=[[0,1],[1,1]];fillColor=none;align=center;verticalAlign=bottom;routingCenterY=0.5;snapToPoint=1;recursiveResize=0;autosize=1;treeFolding=1;treeMoving=1;newEdgeStyle={&quot;edgeStyle&quot;:&quot;entityRelationEdgeStyle&quot;,&quot;startArrow&quot;:&quot;none&quot;,&quot;endArrow&quot;:&quot;none&quot;,&quot;segment&quot;:10,&quot;curved&quot;:1,&quot;sourcePerimeterSpacing&quot;:0,&quot;targetPerimeterSpacing&quot;:0};fontFamily=Comic Sans MS;" parent="HKb9agsZ1lEbPJPf2dtr-1" vertex="1">
          <mxGeometry x="380" y="290" width="570" height="40" as="geometry" />
        </mxCell>
        <mxCell id="HKb9agsZ1lEbPJPf2dtr-31" value="" style="edgeStyle=entityRelationEdgeStyle;startArrow=none;endArrow=none;segment=10;curved=1;sourcePerimeterSpacing=0;targetPerimeterSpacing=0;rounded=0;fontFamily=Comic Sans MS;" parent="HKb9agsZ1lEbPJPf2dtr-1" source="HKb9agsZ1lEbPJPf2dtr-7" target="HKb9agsZ1lEbPJPf2dtr-32" edge="1">
          <mxGeometry x="250" y="-95" width="80" height="20" as="geometry">
            <mxPoint x="490" y="-2109.5" as="sourcePoint" />
          </mxGeometry>
        </mxCell>
        <mxCell id="HKb9agsZ1lEbPJPf2dtr-32" value="Divide and Bind&lt;div&gt;使用 total variation 让 cross attn map 中的 score 更容易出现峰值 (而不是分散关注度)&lt;/div&gt;" style="whiteSpace=wrap;html=1;shape=partialRectangle;top=0;left=0;bottom=1;right=0;points=[[0,1],[1,1]];fillColor=none;align=center;verticalAlign=bottom;routingCenterY=0.5;snapToPoint=1;recursiveResize=0;autosize=1;treeFolding=1;treeMoving=1;newEdgeStyle={&quot;edgeStyle&quot;:&quot;entityRelationEdgeStyle&quot;,&quot;startArrow&quot;:&quot;none&quot;,&quot;endArrow&quot;:&quot;none&quot;,&quot;segment&quot;:10,&quot;curved&quot;:1,&quot;sourcePerimeterSpacing&quot;:0,&quot;targetPerimeterSpacing&quot;:0};fontFamily=Comic Sans MS;" parent="HKb9agsZ1lEbPJPf2dtr-1" vertex="1">
          <mxGeometry x="380" y="370" width="510" height="40" as="geometry" />
        </mxCell>
        <mxCell id="HKb9agsZ1lEbPJPf2dtr-33" value="" style="edgeStyle=entityRelationEdgeStyle;startArrow=none;endArrow=none;segment=10;curved=1;sourcePerimeterSpacing=0;targetPerimeterSpacing=0;rounded=0;fontFamily=Comic Sans MS;" parent="HKb9agsZ1lEbPJPf2dtr-1" source="HKb9agsZ1lEbPJPf2dtr-7" target="HKb9agsZ1lEbPJPf2dtr-34" edge="1">
          <mxGeometry x="250" y="-95" width="80" height="20" as="geometry">
            <mxPoint x="490" y="-1885.5" as="sourcePoint" />
          </mxGeometry>
        </mxCell>
        <mxCell id="HKb9agsZ1lEbPJPf2dtr-34" value="HCP-layer&lt;div&gt;通过 cross attn map 相加融合引入控制信息&lt;/div&gt;&lt;div&gt;一个根据分辨率和 timestep 自适应的损失函数权重&lt;/div&gt;" style="whiteSpace=wrap;html=1;shape=partialRectangle;top=0;left=0;bottom=1;right=0;points=[[0,1],[1,1]];fillColor=none;align=center;verticalAlign=bottom;routingCenterY=0.5;snapToPoint=1;recursiveResize=0;autosize=1;treeFolding=1;treeMoving=1;newEdgeStyle={&quot;edgeStyle&quot;:&quot;entityRelationEdgeStyle&quot;,&quot;startArrow&quot;:&quot;none&quot;,&quot;endArrow&quot;:&quot;none&quot;,&quot;segment&quot;:10,&quot;curved&quot;:1,&quot;sourcePerimeterSpacing&quot;:0,&quot;targetPerimeterSpacing&quot;:0};fontFamily=Comic Sans MS;" parent="HKb9agsZ1lEbPJPf2dtr-1" vertex="1">
          <mxGeometry x="380" y="450" width="310" height="60" as="geometry" />
        </mxCell>
        <mxCell id="HKb9agsZ1lEbPJPf2dtr-35" value="" style="edgeStyle=entityRelationEdgeStyle;startArrow=none;endArrow=none;segment=10;curved=1;sourcePerimeterSpacing=0;targetPerimeterSpacing=0;rounded=0;fontFamily=Comic Sans MS;" parent="HKb9agsZ1lEbPJPf2dtr-1" source="HKb9agsZ1lEbPJPf2dtr-7" target="HKb9agsZ1lEbPJPf2dtr-36" edge="1">
          <mxGeometry x="250" y="-95" width="80" height="20" as="geometry">
            <mxPoint x="490" y="-1618.5" as="sourcePoint" />
          </mxGeometry>
        </mxCell>
        <mxCell id="HKb9agsZ1lEbPJPf2dtr-36" value="InitNO&lt;div&gt;直接对初始噪声 ε 进行 scale and shift&lt;/div&gt;&lt;div&gt;通过 Attend and Excite 一样的损失函数，监督 cross attn map 不遗漏 subject&lt;/div&gt;&lt;div&gt;通过类似 IoU 监督 self attn map 多个 subject 不产生重叠&lt;/div&gt;" style="whiteSpace=wrap;html=1;shape=partialRectangle;top=0;left=0;bottom=1;right=0;points=[[0,1],[1,1]];fillColor=none;align=center;verticalAlign=bottom;routingCenterY=0.5;snapToPoint=1;recursiveResize=0;autosize=1;treeFolding=1;treeMoving=1;newEdgeStyle={&quot;edgeStyle&quot;:&quot;entityRelationEdgeStyle&quot;,&quot;startArrow&quot;:&quot;none&quot;,&quot;endArrow&quot;:&quot;none&quot;,&quot;segment&quot;:10,&quot;curved&quot;:1,&quot;sourcePerimeterSpacing&quot;:0,&quot;targetPerimeterSpacing&quot;:0};fontFamily=Comic Sans MS;" parent="HKb9agsZ1lEbPJPf2dtr-1" vertex="1">
          <mxGeometry x="380" y="550" width="470" height="70" as="geometry" />
        </mxCell>
        <mxCell id="HKb9agsZ1lEbPJPf2dtr-37" value="" style="edgeStyle=entityRelationEdgeStyle;startArrow=none;endArrow=none;segment=10;curved=1;sourcePerimeterSpacing=0;targetPerimeterSpacing=0;rounded=0;fontFamily=Comic Sans MS;" parent="HKb9agsZ1lEbPJPf2dtr-1" source="HKb9agsZ1lEbPJPf2dtr-7" target="HKb9agsZ1lEbPJPf2dtr-38" edge="1">
          <mxGeometry x="250" y="-95" width="80" height="20" as="geometry">
            <mxPoint x="490" y="-1286" as="sourcePoint" />
          </mxGeometry>
        </mxCell>
        <mxCell id="HKb9agsZ1lEbPJPf2dtr-38" value="S-CFG&lt;div&gt;对 cross attn map 按列进行归一化，尽量每个 token 都有被关注的可能&lt;/div&gt;&lt;div&gt;self attn map “修补” cross attn map&lt;/div&gt;&lt;div&gt;每个 subject 使用不同的 cfg scale，scale 将 background 作为 benchmark 计算比值，&lt;span style=&quot;background-color: transparent; color: light-dark(rgb(0, 0, 0), rgb(255, 255, 255));&quot;&gt;e(xt, c)-e(xt) 作为“关注度权重”&lt;/span&gt;&lt;/div&gt;" style="whiteSpace=wrap;html=1;shape=partialRectangle;top=0;left=0;bottom=1;right=0;points=[[0,1],[1,1]];fillColor=none;align=center;verticalAlign=bottom;routingCenterY=0.5;snapToPoint=1;recursiveResize=0;autosize=1;treeFolding=1;treeMoving=1;newEdgeStyle={&quot;edgeStyle&quot;:&quot;entityRelationEdgeStyle&quot;,&quot;startArrow&quot;:&quot;none&quot;,&quot;endArrow&quot;:&quot;none&quot;,&quot;segment&quot;:10,&quot;curved&quot;:1,&quot;sourcePerimeterSpacing&quot;:0,&quot;targetPerimeterSpacing&quot;:0};fontFamily=Comic Sans MS;" parent="HKb9agsZ1lEbPJPf2dtr-1" vertex="1">
          <mxGeometry x="380" y="660" width="680" height="70" as="geometry" />
        </mxCell>
        <mxCell id="HKb9agsZ1lEbPJPf2dtr-39" value="" style="edgeStyle=entityRelationEdgeStyle;startArrow=none;endArrow=none;segment=10;curved=1;sourcePerimeterSpacing=0;targetPerimeterSpacing=0;rounded=0;fontFamily=Comic Sans MS;" parent="HKb9agsZ1lEbPJPf2dtr-1" source="HKb9agsZ1lEbPJPf2dtr-7" target="HKb9agsZ1lEbPJPf2dtr-40" edge="1">
          <mxGeometry x="250" y="-95" width="80" height="20" as="geometry">
            <mxPoint x="490" y="-887.5" as="sourcePoint" />
          </mxGeometry>
        </mxCell>
        <mxCell id="HKb9agsZ1lEbPJPf2dtr-40" value="Magnet&lt;div&gt;EOT token 主要包含全局信息&lt;/div&gt;&lt;div&gt;第一个 EOT 和作为 Pad 的之间存在区别&lt;/div&gt;" style="whiteSpace=wrap;html=1;shape=partialRectangle;top=0;left=0;bottom=1;right=0;points=[[0,1],[1,1]];fillColor=none;align=center;verticalAlign=bottom;routingCenterY=0.5;snapToPoint=1;recursiveResize=0;autosize=1;treeFolding=1;treeMoving=1;newEdgeStyle={&quot;edgeStyle&quot;:&quot;entityRelationEdgeStyle&quot;,&quot;startArrow&quot;:&quot;none&quot;,&quot;endArrow&quot;:&quot;none&quot;,&quot;segment&quot;:10,&quot;curved&quot;:1,&quot;sourcePerimeterSpacing&quot;:0,&quot;targetPerimeterSpacing&quot;:0};fontFamily=Comic Sans MS;" parent="HKb9agsZ1lEbPJPf2dtr-1" vertex="1">
          <mxGeometry x="380" y="770" width="260" height="60" as="geometry" />
        </mxCell>
        <mxCell id="HKb9agsZ1lEbPJPf2dtr-51" value="" style="edgeStyle=entityRelationEdgeStyle;startArrow=none;endArrow=none;segment=10;curved=1;sourcePerimeterSpacing=0;targetPerimeterSpacing=0;rounded=0;fontFamily=Comic Sans MS;" parent="HKb9agsZ1lEbPJPf2dtr-1" source="HKb9agsZ1lEbPJPf2dtr-7" target="HKb9agsZ1lEbPJPf2dtr-52" edge="1">
          <mxGeometry x="250" y="-95" width="80" height="20" as="geometry">
            <mxPoint x="490" y="-428" as="sourcePoint" />
          </mxGeometry>
        </mxCell>
        <mxCell id="HKb9agsZ1lEbPJPf2dtr-52" value="ToMe&lt;div&gt;使用不包含 attribute 的 prompt 来生成 EOT token，减少 EOT 的全局影响&lt;/div&gt;&lt;div&gt;attribute 和 subject token 可以相加融合形成包含两者信息的 token&lt;/div&gt;" style="whiteSpace=wrap;html=1;shape=partialRectangle;top=0;left=0;bottom=1;right=0;points=[[0,1],[1,1]];fillColor=none;align=center;verticalAlign=bottom;routingCenterY=0.5;snapToPoint=1;recursiveResize=0;autosize=1;treeFolding=1;treeMoving=1;newEdgeStyle={&quot;edgeStyle&quot;:&quot;entityRelationEdgeStyle&quot;,&quot;startArrow&quot;:&quot;none&quot;,&quot;endArrow&quot;:&quot;none&quot;,&quot;segment&quot;:10,&quot;curved&quot;:1,&quot;sourcePerimeterSpacing&quot;:0,&quot;targetPerimeterSpacing&quot;:0};fontFamily=Comic Sans MS;" parent="HKb9agsZ1lEbPJPf2dtr-1" vertex="1">
          <mxGeometry x="380" y="870" width="450" height="60" as="geometry" />
        </mxCell>
        <mxCell id="HKb9agsZ1lEbPJPf2dtr-13" value="Mindmap" style="swimlane;startSize=20;horizontal=0;childLayout=treeLayout;horizontalTree=1;sortEdges=1;resizable=0;containerType=tree;fontSize=12;fontFamily=Comic Sans MS;" parent="1" vertex="1">
          <mxGeometry x="1370" y="120" width="810" height="170" as="geometry" />
        </mxCell>
        <mxCell id="HKb9agsZ1lEbPJPf2dtr-14" value="PlaceHolder" style="whiteSpace=wrap;html=1;shape=ellipse;perimeter=ellipsePerimeter;newEdgeStyle={&quot;edgeStyle&quot;:&quot;entityRelationEdgeStyle&quot;,&quot;startArrow&quot;:&quot;none&quot;,&quot;endArrow&quot;:&quot;none&quot;,&quot;segment&quot;:10,&quot;curved&quot;:1,&quot;sourcePerimeterSpacing&quot;:0,&quot;targetPerimeterSpacing&quot;:0};treeFolding=1;treeMoving=1;fillColor=#f8cecc;strokeColor=#b85450;fontFamily=Comic Sans MS;" parent="HKb9agsZ1lEbPJPf2dtr-13" vertex="1">
          <mxGeometry x="40" y="57.5" width="100" height="40" as="geometry" />
        </mxCell>
        <mxCell id="HKb9agsZ1lEbPJPf2dtr-15" value="DreamBooth-Like" style="whiteSpace=wrap;html=1;rounded=1;arcSize=50;align=center;verticalAlign=middle;strokeWidth=1;autosize=1;spacing=4;treeFolding=1;treeMoving=1;newEdgeStyle={&quot;edgeStyle&quot;:&quot;entityRelationEdgeStyle&quot;,&quot;startArrow&quot;:&quot;none&quot;,&quot;endArrow&quot;:&quot;none&quot;,&quot;segment&quot;:10,&quot;curved&quot;:1,&quot;sourcePerimeterSpacing&quot;:0,&quot;targetPerimeterSpacing&quot;:0};fillColor=#d5e8d4;strokeColor=#82b366;fontFamily=Comic Sans MS;" parent="HKb9agsZ1lEbPJPf2dtr-13" vertex="1">
          <mxGeometry x="190" y="20" width="140" height="30" as="geometry" />
        </mxCell>
        <mxCell id="HKb9agsZ1lEbPJPf2dtr-16" value="" style="edgeStyle=entityRelationEdgeStyle;startArrow=none;endArrow=none;segment=10;curved=1;sourcePerimeterSpacing=0;targetPerimeterSpacing=0;rounded=0;fontFamily=Comic Sans MS;" parent="HKb9agsZ1lEbPJPf2dtr-13" source="HKb9agsZ1lEbPJPf2dtr-14" target="HKb9agsZ1lEbPJPf2dtr-15" edge="1">
          <mxGeometry x="60" y="-93" width="80" height="26" as="geometry" />
        </mxCell>
        <mxCell id="HKb9agsZ1lEbPJPf2dtr-17" value="" style="edgeStyle=entityRelationEdgeStyle;startArrow=none;endArrow=none;segment=10;curved=1;sourcePerimeterSpacing=0;targetPerimeterSpacing=0;rounded=0;fontFamily=Comic Sans MS;" parent="HKb9agsZ1lEbPJPf2dtr-13" source="HKb9agsZ1lEbPJPf2dtr-14" target="HKb9agsZ1lEbPJPf2dtr-18" edge="1">
          <mxGeometry x="60" y="-93" width="80" height="26" as="geometry">
            <mxPoint x="300" y="171.5" as="sourcePoint" />
          </mxGeometry>
        </mxCell>
        <mxCell id="HKb9agsZ1lEbPJPf2dtr-18" value="Textual Inversion-Like" style="whiteSpace=wrap;html=1;rounded=1;arcSize=50;align=center;verticalAlign=middle;strokeWidth=1;autosize=1;spacing=4;treeFolding=1;treeMoving=1;newEdgeStyle={&quot;edgeStyle&quot;:&quot;entityRelationEdgeStyle&quot;,&quot;startArrow&quot;:&quot;none&quot;,&quot;endArrow&quot;:&quot;none&quot;,&quot;segment&quot;:10,&quot;curved&quot;:1,&quot;sourcePerimeterSpacing&quot;:0,&quot;targetPerimeterSpacing&quot;:0};fillColor=#d5e8d4;strokeColor=#82b366;fontFamily=Comic Sans MS;" parent="HKb9agsZ1lEbPJPf2dtr-13" vertex="1">
          <mxGeometry x="190" y="105" width="170" height="30" as="geometry" />
        </mxCell>
        <mxCell id="HKb9agsZ1lEbPJPf2dtr-23" value="Branch" style="whiteSpace=wrap;html=1;shape=partialRectangle;top=0;left=0;bottom=1;right=0;points=[[0,1],[1,1]];fillColor=none;align=center;verticalAlign=bottom;routingCenterY=0.5;snapToPoint=1;recursiveResize=0;autosize=1;treeFolding=1;treeMoving=1;newEdgeStyle={&quot;edgeStyle&quot;:&quot;entityRelationEdgeStyle&quot;,&quot;startArrow&quot;:&quot;none&quot;,&quot;endArrow&quot;:&quot;none&quot;,&quot;segment&quot;:10,&quot;curved&quot;:1,&quot;sourcePerimeterSpacing&quot;:0,&quot;targetPerimeterSpacing&quot;:0};fontFamily=Comic Sans MS;" parent="HKb9agsZ1lEbPJPf2dtr-13" vertex="1">
          <mxGeometry x="380" y="20" width="80" height="30" as="geometry" />
        </mxCell>
        <mxCell id="HKb9agsZ1lEbPJPf2dtr-24" value="" style="edgeStyle=entityRelationEdgeStyle;startArrow=none;endArrow=none;segment=10;curved=1;sourcePerimeterSpacing=0;targetPerimeterSpacing=0;rounded=0;fontFamily=Comic Sans MS;" parent="HKb9agsZ1lEbPJPf2dtr-13" source="HKb9agsZ1lEbPJPf2dtr-15" target="HKb9agsZ1lEbPJPf2dtr-23" edge="1">
          <mxGeometry x="-960" y="-95" width="80" height="20" as="geometry" />
        </mxCell>
        <mxCell id="HKb9agsZ1lEbPJPf2dtr-25" value="discriminative class tokens&lt;div&gt;额外增加一个可训练的 token，而不是使用 placeholder&lt;/div&gt;&lt;div&gt;使用 classifier 对生成图像的正确性 (是否属于某个类) 进行监督&lt;/div&gt;" style="whiteSpace=wrap;html=1;shape=partialRectangle;top=0;left=0;bottom=1;right=0;points=[[0,1],[1,1]];fillColor=none;align=center;verticalAlign=bottom;routingCenterY=0.5;snapToPoint=1;recursiveResize=0;autosize=1;treeFolding=1;treeMoving=1;newEdgeStyle={&quot;edgeStyle&quot;:&quot;entityRelationEdgeStyle&quot;,&quot;startArrow&quot;:&quot;none&quot;,&quot;endArrow&quot;:&quot;none&quot;,&quot;segment&quot;:10,&quot;curved&quot;:1,&quot;sourcePerimeterSpacing&quot;:0,&quot;targetPerimeterSpacing&quot;:0};fontFamily=Comic Sans MS;" parent="HKb9agsZ1lEbPJPf2dtr-13" vertex="1">
          <mxGeometry x="410" y="90" width="380" height="60" as="geometry" />
        </mxCell>
        <mxCell id="HKb9agsZ1lEbPJPf2dtr-26" value="" style="edgeStyle=entityRelationEdgeStyle;startArrow=none;endArrow=none;segment=10;curved=1;sourcePerimeterSpacing=0;targetPerimeterSpacing=0;rounded=0;fontFamily=Comic Sans MS;" parent="HKb9agsZ1lEbPJPf2dtr-13" source="HKb9agsZ1lEbPJPf2dtr-18" target="HKb9agsZ1lEbPJPf2dtr-25" edge="1">
          <mxGeometry x="-940" y="-25" width="80" height="20" as="geometry" />
        </mxCell>
      </root>
    </mxGraphModel>
  </diagram>
</mxfile>
